<?xml version="1.0" encoding="utf-8"?>
<!-- Generator: Adobe Illustrator 27.5.0, SVG Export Plug-In . SVG Version: 6.00 Build 0)  -->
<svg version="1.1" xmlns="http://www.w3.org/2000/svg" xmlns:xlink="http://www.w3.org/1999/xlink" x="0px" y="0px"
	 viewBox="0 0 500 500" style="enable-background:new 0 0 500 500;" xml:space="preserve">
<g id="BACKGROUND">
	<rect style="fill:#FFFFFF;" width="500" height="500"/>
</g>
<g id="OBJECTS">
	<path style="opacity:0.27;fill:#8FF2D1;" d="M260.05,135.24c-16.381,17.101-27.859,38.178-41.188,57.752
		c-13.329,19.574-29.491,38.451-51.272,47.745c-22.648,9.663-49.926,8.341-69.699,23.016
		c-14.532,10.785-22.564,29.718-20.221,47.663c2.343,17.945,14.968,34.18,31.782,40.872c34.367,13.678,73.49-12.066,109.543-3.8
		c19.38,4.443,35.088,18.091,50.587,30.544c15.499,12.454,32.991,24.636,52.866,25.178c15.084,0.411,30.201-6.49,39.773-18.155
		c9.572-11.666,13.388-27.839,10.039-42.553c-4.707-20.684-22.239-37.076-25.108-58.093c-1.909-13.981,3.028-28.001,9.297-40.643
		c6.269-12.642,13.986-24.676,18.296-38.113c6.991-21.795,4.164-46.539-7.563-66.196c-9.412-15.777-27.196-29.692-52.956-30.551
		C293.536,109.215,273.576,121.12,260.05,135.24z"/>
	<g>
		
			<line style="fill:none;stroke:#B9D0F9;stroke-width:2.4878;stroke-linecap:round;stroke-linejoin:round;stroke-miterlimit:10;" x1="74.079" y1="110.508" x2="74.079" y2="132.897"/>
		
			<line style="fill:none;stroke:#B9D0F9;stroke-width:2.4878;stroke-linecap:round;stroke-linejoin:round;stroke-miterlimit:10;" x1="85.274" y1="121.703" x2="62.885" y2="121.703"/>
	</g>
	<g>
		
			<line style="fill:none;stroke:#B9D0F9;stroke-width:2.4878;stroke-linecap:round;stroke-linejoin:round;stroke-miterlimit:10;" x1="430.214" y1="391.362" x2="430.214" y2="413.751"/>
		
			<line style="fill:none;stroke:#B9D0F9;stroke-width:2.4878;stroke-linecap:round;stroke-linejoin:round;stroke-miterlimit:10;" x1="441.408" y1="402.557" x2="419.02" y2="402.557"/>
	</g>
	<g>
		
			<line style="fill:none;stroke:#B9D0F9;stroke-width:1.7306;stroke-linecap:round;stroke-linejoin:round;stroke-miterlimit:10;" x1="415.502" y1="82.766" x2="415.502" y2="98.341"/>
		
			<line style="fill:none;stroke:#B9D0F9;stroke-width:1.7306;stroke-linecap:round;stroke-linejoin:round;stroke-miterlimit:10;" x1="423.289" y1="90.553" x2="407.714" y2="90.553"/>
	</g>
	
		<ellipse transform="matrix(0.7071 -0.7071 0.7071 0.7071 -113.6568 252.3819)" style="fill:none;stroke:#B9D0F9;stroke-width:3.0539;stroke-linecap:round;stroke-linejoin:round;stroke-miterlimit:10;stroke-dasharray:7.3293;" cx="247.823" cy="263.387" rx="183.223" ry="183.223"/>
	<g>
		<circle style="fill:#B9D0F9;" cx="425.356" cy="262.865" r="39.682"/>
		<path style="fill:#34304F;" d="M410.625,238.204c-3.709,2.507-7.104,6.2-9.303,10.065c-0.715,1.256-0.633,2.816,0.198,3.999
			c5.004,7.119,10.515,14.428,16.887,20.225c5.409,4.921,11.692,8.877,18.463,11.638c2.028,0.827,5.271,0.222,7.134-0.929
			c2.386-1.474,5.557-3.056,6.158-6.104c1.373-6.974-13.327-19.485-15.288-9.9c-0.464,2.267-0.934,4.545-1.158,6.422
			c-7.344-5.837-14.074-11.685-19.986-18.969c2.503,0.332,4.852,0.153,7.176-0.358c3.095-0.679,4.689-4.133,3.155-6.906
			c-1.962-3.547-4.503-6.984-7.959-9.222C414.425,237.08,412.28,237.085,410.625,238.204z"/>
		
			<path style="fill:none;stroke:#7973EF;stroke-width:1.2215;stroke-linecap:round;stroke-linejoin:round;stroke-miterlimit:10;" d="
			M410.245,239.56c5.537,2.796,9.651,8.258,10.809,14.352"/>
		
			<path style="fill:none;stroke:#7973EF;stroke-width:1.3896;stroke-linecap:round;stroke-linejoin:round;stroke-miterlimit:10;" d="
			M434.873,267.198c6.093,0.805,11.871,6.972,14.221,12.746"/>
		
			<path style="fill:none;stroke:#7973EF;stroke-width:1.2215;stroke-linecap:round;stroke-linejoin:round;stroke-miterlimit:10;" d="
			M408.881,254.646c1.735,6.771,16.801,20.819,24.334,23.262"/>
	</g>
	<g>
		<g>
			<circle style="fill:#B9D0F9;" cx="133.88" cy="99.22" r="39.682"/>
		</g>
		<g>
			<path style="fill:#FFFFFF;" d="M162.494,117.012h-57.718V85.164c0-4,3.243-7.242,7.242-7.242h43.234c4,0,7.242,3.243,7.242,7.242
				V117.012z"/>
			<path style="fill:#34304F;" d="M162.494,90.748v-5.584c0-4-3.242-7.242-7.242-7.242h-43.234c-4,0-7.242,3.242-7.242,7.242v5.584
				H162.494z"/>
			<path style="fill:#7973EF;" d="M143.254,84.183c0,1.096-0.889,1.985-1.985,1.985c-1.096,0-1.985-0.889-1.985-1.985
				s0.889-1.985,1.985-1.985C142.366,82.198,143.254,83.086,143.254,84.183z"/>
			<circle style="fill:#7973EF;" cx="149.362" cy="84.03" r="1.985"/>
			<path style="fill:#7973EF;" d="M159.287,83.877c0,1.096-0.889,1.985-1.985,1.985s-1.985-0.889-1.985-1.985
				c0-1.096,0.889-1.985,1.985-1.985S159.287,82.781,159.287,83.877z"/>
			<rect x="110.578" y="95.635" style="fill:#A2A2ED;" width="22.904" height="18.018"/>
			<rect x="138.674" y="96.551" style="fill:#A2A2ED;" width="20.461" height="2.138"/>
			<rect x="138.674" y="103.575" style="fill:#A2A2ED;" width="20.461" height="2.138"/>
			<rect x="138.674" y="110.904" style="fill:#A2A2ED;" width="20.461" height="2.138"/>
		</g>
	</g>
	<g>
		<g>
			<circle style="fill:#B9D0F9;" cx="359.112" cy="99.22" r="39.682"/>
		</g>
		<path style="fill:#7973EF;" d="M360.607,118.64L360.607,118.64c-0.644,0-1.171-0.527-1.171-1.171l0,0
			c0-0.644,0.527-1.171,1.171-1.171l0,0c0.644,0,1.171,0.527,1.171,1.171l0,0C361.778,118.114,361.251,118.64,360.607,118.64z"/>
		<g>
			<path style="fill:#34304F;" d="M353.023,104.705c0,0,9.272-10.699,26.066-5.79l-14.12-27.311c0,0-6.261,14.757-19.955,22.25
				L353.023,104.705z"/>
			<path style="fill:#34304F;" d="M354.969,95.801c6.298-3.111,11.003-8.12,15.712-13.147l-5.713-11.049
				c0,0-6.261,14.757-19.955,22.25l3.447,4.67C350.684,97.742,352.861,96.842,354.969,95.801z"/>
			<g>
				<g>
					<g>
						<g>
							<path style="fill:#34304F;" d="M338.256,110.805l3.719-2.471c0.472-0.314,0.595-0.947,0.274-1.408l-3.781-5.423
								c-0.321-0.461-0.97-0.581-1.442-0.267l-3.719,2.471c-0.472,0.314-0.595,0.947-0.274,1.408l3.781,5.423
								C337.135,110.999,337.784,111.119,338.256,110.805z"/>
							<path style="fill:#34304F;" d="M337.501,105.828l0.97,1.392c0.056,0.08,0.113,0.159,0.172,0.235
								c0.548,0.726,1.212,1.328,1.949,1.798c0.503,0.32,1.041,0.58,1.6,0.775c2.225,0.779,4.791,0.548,6.884-0.843
								c3.472-2.307,4.379-6.966,2.017-10.354l-0.97-1.392c-2.362-3.387-7.134-4.272-10.606-1.965
								c-1.736,1.153-2.831,2.895-3.196,4.772c-0.165,0.846-0.182,1.719-0.042,2.579c0.085,0.526,0.228,1.045,0.433,1.55
								C336.915,104.878,337.178,105.365,337.501,105.828z"/>
							<path style="fill:#34304F;" d="M357.902,120.982l-9.61-13.864c-0.27-0.389-0.106-0.966,0.364-1.283l4.577-3.08
								c0.47-0.316,1.075-0.257,1.345,0.132l9.474,13.668L357.902,120.982z"/>
							<path style="fill:#34304F;" d="M351.723,112.068c2.317-1.756,4.121-3.872,4.625-6.626l-1.771-2.554
								c-0.27-0.389-0.875-0.449-1.345-0.132l-4.576,3.08c-0.47,0.316-0.634,0.894-0.364,1.283L351.723,112.068z"/>
							<polygon style="fill:#34304F;" points="348.995,109.239 356.371,104.337 346.809,90.622 339.432,95.525 							"/>
						</g>
					</g>
				</g>
			</g>
			<path style="fill:#34304F;" d="M379.089,98.915c-1.217,0.631-3.873-1.93-6.71-6.18c-0.199-0.3-0.4-0.607-0.599-0.922
				c-0.953-1.493-1.917-3.162-2.842-4.955c-0.656-1.266-1.25-2.514-1.777-3.715c-0.124-0.282-0.245-0.561-0.362-0.837
				c-0.031-0.075-0.062-0.15-0.093-0.222c-2.276-5.462-3.072-9.79-1.739-10.479c1.708-0.881,6.253,4.516,10.151,12.058
				C379.02,91.203,380.795,98.032,379.089,98.915z"/>
			<path style="fill:#7973EF;" d="M344.138,97.031l-4.512,2.605c-0.266,0.153-0.609,0.062-0.762-0.204l0,0
				c-0.153-0.266-0.062-0.609,0.204-0.763l4.512-2.605c0.266-0.153,0.609-0.062,0.762,0.204l0,0
				C344.496,96.535,344.404,96.878,344.138,97.031z"/>
			<path style="fill:#7973EF;" d="M346.475,101.09l-4.512,2.605c-0.266,0.154-0.609,0.062-0.762-0.204l0,0
				c-0.154-0.266-0.062-0.609,0.204-0.762l4.511-2.605c0.266-0.154,0.609-0.062,0.763,0.204l0,0
				C346.832,100.594,346.74,100.937,346.475,101.09z"/>
			<path style="fill:#7973EF;" d="M349.27,105.3l-4.511,2.605c-0.266,0.153-0.609,0.061-0.763-0.204l0,0
				c-0.154-0.266-0.061-0.609,0.204-0.763l4.512-2.605c0.266-0.154,0.609-0.062,0.763,0.204l0,0
				C349.628,104.803,349.536,105.146,349.27,105.3z"/>
			<path style="fill:#7973EF;" d="M353.685,111.465L353.685,111.465c-0.451,0-0.82-0.369-0.82-0.82l0,0
				c0-0.451,0.369-0.82,0.82-0.82l0,0c0.451,0,0.82,0.369,0.82,0.82l0,0C354.505,111.096,354.136,111.465,353.685,111.465z"/>
			<path style="fill:#7973EF;" d="M356.586,115.79L356.586,115.79c-0.451,0-0.82-0.369-0.82-0.82l0,0c0-0.451,0.369-0.82,0.82-0.82
				l0,0c0.451,0,0.82,0.369,0.82,0.82l0,0C357.406,115.421,357.037,115.79,356.586,115.79z"/>
			<path style="fill:#34304F;" d="M378.668,83.987c0,2.657-2.058,4.811-4.597,4.811c-2.539,0-4.598-2.154-4.598-4.811
				c0-2.657,2.058-4.811,4.598-4.811C376.61,79.175,378.668,81.329,378.668,83.987z"/>
			
				<path style="fill:none;stroke:#7973EF;stroke-width:0.8553;stroke-linecap:round;stroke-linejoin:round;stroke-miterlimit:10;" d="
				M365.633,74.036c5.542,6.184,9.674,13.624,11.996,21.596"/>
		</g>
		
			<ellipse transform="matrix(0.9252 -0.3796 0.3796 0.9252 3.3074 153.6855)" style="fill:#7973EF;" cx="391.4" cy="68.455" rx="13.437" ry="13.437"/>
		<path style="fill:#7973EF;" d="M387.667,79.667c0.348,1.718-0.04,3.572-1.048,5.005c-1.008,1.434-2.621,2.427-4.355,2.681
			c3.211,1.066,6.251-0.021,8.633-2.424c1.438-1.451,2.569-3.486,2.104-5.475L387.667,79.667z"/>
		<path style="fill:#FFFFFF;" d="M397.915,67.495c0-2.056-1.667-3.723-3.723-3.723c-1.149,0-2.176,0.521-2.858,1.339
			c-0.683-0.818-1.71-1.339-2.858-1.339c-2.056,0-3.723,1.667-3.723,3.723c0,2.043,1.811,3.392,3.136,4.686
			c0.245,0.239,3.464,3.468,3.466,3.466c1.348-1.348,2.701-2.69,4.042-4.044C396.565,70.424,397.915,69.297,397.915,67.495z"/>
	</g>
	<g>
		<g>
			
				<ellipse transform="matrix(0.9504 -0.3112 0.3112 0.9504 -77.7356 36.6559)" style="fill:#B9D0F9;" cx="76.013" cy="261.954" rx="40.592" ry="40.592"/>
		</g>
		<rect x="51.775" y="248.729" style="fill:#FFFFFF;" width="49.47" height="32.064"/>
		<polygon style="opacity:0.41;fill:#A2A2ED;" points="101.245,280.793 51.775,280.793 51.775,248.729 75.594,271.632 
			101.245,248.729 		"/>
		
			<polyline style="fill:none;stroke:#A2A2ED;stroke-width:3.0539;stroke-linecap:round;stroke-linejoin:round;stroke-miterlimit:10;" points="
			56.367,253.884 75.465,271.761 95.66,253.884 		"/>
	</g>
	<g>
		<g>
			<circle style="fill:#B9D0F9;" cx="146.549" cy="427.766" r="39.682"/>
		</g>
		<g>
			
				<polygon style="fill:#34304F;stroke:#34304F;stroke-width:1.2289;stroke-linecap:round;stroke-linejoin:round;stroke-miterlimit:10;" points="
				146.235,456.527 121.59,443.74 121.657,404.095 146.302,416.882 			"/>
			<polygon style="fill:#FFFFFF;" points="146.748,452.84 125.753,442.151 125.811,409.011 146.805,419.7 			"/>
			<polygon style="opacity:0.41;fill:#A2A2ED;" points="146.748,452.84 125.753,442.151 125.811,409.011 146.805,419.7 			"/>
			<polygon style="fill:#FFFFFF;" points="146.748,448.446 125.753,438.829 125.811,409.011 146.805,419.741 			"/>
			
				<polygon style="fill:#34304F;stroke:#34304F;stroke-width:1.2289;stroke-linecap:round;stroke-linejoin:round;stroke-miterlimit:10;" points="
				146.862,456.322 171.507,443.535 171.44,403.891 146.795,416.677 			"/>
			<polygon style="fill:#FFFFFF;" points="145.939,452.636 166.934,441.947 166.877,408.806 145.882,419.495 			"/>
			<polygon style="fill:#A2A2ED;" points="150.4,441.388 161.532,436.312 161.502,420.573 150.37,425.649 			"/>
			<polygon style="fill:#A2A2ED;" points="142.281,442.987 131.149,437.911 131.179,422.172 142.311,427.248 			"/>
			<polygon style="opacity:0.41;fill:#A2A2ED;" points="145.939,452.636 166.934,441.947 166.515,437.868 145.916,448.446 			"/>
			<path style="fill:#A2A2ED;" d="M142.166,424.712l-11.141-5.088c-0.418-0.191-0.603-0.689-0.413-1.107l0,0
				c0.191-0.418,0.689-0.603,1.107-0.413l11.141,5.088c0.418,0.191,0.604,0.689,0.413,1.106l0,0
				C143.082,424.717,142.584,424.903,142.166,424.712z"/>
			<path style="fill:#A2A2ED;" d="M150.37,423.877l11.141-5.088c0.418-0.191,0.604-0.689,0.413-1.107l0,0
				c-0.191-0.418-0.689-0.603-1.107-0.413l-11.141,5.088c-0.418,0.191-0.604,0.689-0.413,1.107l0,0
				C149.454,423.882,149.952,424.068,150.37,423.877z"/>
			
				<line style="fill:none;stroke:#FFFFFF;stroke-width:2.2269;stroke-linecap:round;stroke-linejoin:round;stroke-miterlimit:10;" x1="128.101" y1="428.961" x2="144.524" y2="436.198"/>
			
				<line style="fill:none;stroke:#A2A2ED;stroke-width:1.6702;stroke-linecap:round;stroke-linejoin:round;stroke-miterlimit:10;" x1="145.637" y1="454.57" x2="145.637" y2="416.677"/>
		</g>
	</g>
	<g>
		<g>
			<circle style="fill:#B9D0F9;" cx="345.345" cy="427.766" r="39.682"/>
		</g>
		<g>
			
				<path style="fill:#34304F;stroke:#34304F;stroke-width:1.4479;stroke-linecap:round;stroke-linejoin:round;stroke-miterlimit:10;" d="
				M333.926,404.067c-7.835,8.83-7.159,22.342,1.583,30.335c8.742,7.993,22.261,7.461,30.356-1.131L333.926,404.067z"/>
			
				<polyline style="fill:none;stroke:#34304F;stroke-width:1.4479;stroke-linecap:round;stroke-linejoin:round;stroke-miterlimit:10;" points="
				324.826,451.791 335.509,434.402 347.786,451.791 			"/>
			
				<path style="fill:none;stroke:#34304F;stroke-width:1.4479;stroke-linecap:round;stroke-linejoin:round;stroke-miterlimit:10;" d="
				M335.978,453.759c0-0.984,0-22.959,0-22.959"/>
			
				<path style="fill:none;stroke:#34304F;stroke-width:1.4479;stroke-linecap:round;stroke-linejoin:round;stroke-miterlimit:10;" d="
				M344.506,418.336c0.984-1.312,13.448-13.119,13.448-13.119"/>
			<path style="fill:#34304F;" d="M361.397,405.217c0,1.902-1.542,3.444-3.444,3.444s-3.444-1.542-3.444-3.444
				c0-1.902,1.542-3.444,3.444-3.444S361.397,403.315,361.397,405.217z"/>
			
				<line style="fill:none;stroke:#7973EF;stroke-width:1.3119;stroke-linecap:round;stroke-linejoin:round;stroke-miterlimit:10;" x1="331.714" y1="405.872" x2="364.185" y2="436.047"/>
		</g>
	</g>
	<path style="fill:#E4E4FD;" d="M476.579,176.52H359.304c0.544-6.428,7.469-10.977,13.616-12.935
		c12.095-3.853,25.537,6.769,37.416,2.296c6.571-2.474,10.765-8.979,16.885-12.421c8.823-4.963,20.306-2.592,28.623,3.178
		C464.162,162.408,470.936,168.115,476.579,176.52z"/>
	<path style="fill:#E4E4FD;" d="M139.432,183.294H45.475c0.436-5.15,5.984-8.794,10.909-10.363
		c9.69-3.087,20.459,5.423,29.977,1.839c5.264-1.982,8.625-7.193,13.528-9.951c7.069-3.976,16.268-2.077,22.932,2.546
		C129.484,171.988,134.911,176.561,139.432,183.294z"/>
	<circle style="fill:#B9D0F9;" cx="75.301" cy="397.009" r="5.497"/>
	<path style="fill:#B9D0F9;" d="M58.81,362.195c0,1.349-1.094,2.443-2.443,2.443c-1.349,0-2.443-1.094-2.443-2.443
		c0-1.349,1.094-2.443,2.443-2.443C57.716,359.752,58.81,360.845,58.81,362.195z"/>
	<path style="fill:#B9D0F9;" d="M134.546,216.831c0,2.024-1.641,3.665-3.665,3.665s-3.665-1.641-3.665-3.665
		c0-2.024,1.641-3.665,3.665-3.665S134.546,214.807,134.546,216.831z"/>
	<circle style="fill:#B9D0F9;" cx="110.726" cy="206.447" r="1.832"/>
	<path style="fill:#B9D0F9;" d="M79.576,83.071c0,1.687-1.367,3.054-3.054,3.054s-3.054-1.367-3.054-3.054
		c0-1.687,1.367-3.054,3.054-3.054S79.576,81.385,79.576,83.071z"/>
	<path style="fill:#B9D0F9;" d="M411.667,127.667c0,1.687-1.367,3.054-3.054,3.054c-1.687,0-3.054-1.367-3.054-3.054
		c0-1.687,1.367-3.054,3.054-3.054C410.299,124.613,411.667,125.98,411.667,127.667z"/>
	<path style="fill:#B9D0F9;" d="M129.443,44.333c0,1.349-1.094,2.443-2.443,2.443c-1.349,0-2.443-1.094-2.443-2.443
		c0-1.349,1.094-2.443,2.443-2.443C128.349,41.89,129.443,42.984,129.443,44.333z"/>
	<path style="fill:#B9D0F9;" d="M202.11,44.11c0,1.349-1.094,2.443-2.443,2.443c-1.349,0-2.443-1.094-2.443-2.443
		c0-1.349,1.094-2.443,2.443-2.443C201.016,41.667,202.11,42.761,202.11,44.11z"/>
	<path style="fill:#B9D0F9;" d="M324.11,41c0,1.349-1.094,2.443-2.443,2.443s-2.443-1.094-2.443-2.443
		c0-1.349,1.094-2.443,2.443-2.443S324.11,39.651,324.11,41z"/>
	<path style="fill:#B9D0F9;" d="M66.139,153.31c0,2.024-1.641,3.665-3.665,3.665s-3.665-1.641-3.665-3.665
		c0-2.024,1.641-3.665,3.665-3.665S66.139,151.286,66.139,153.31z"/>
	<circle style="fill:#B9D0F9;" cx="199" cy="140.333" r="3.054"/>
	<path style="fill:#B9D0F9;" d="M208.445,64.333c0,0.675-0.547,1.222-1.221,1.222s-1.221-0.547-1.221-1.222
		c0-0.675,0.547-1.221,1.221-1.221S208.445,63.659,208.445,64.333z"/>
	<path style="fill:#B9D0F9;" d="M428.11,118.333c0,0.675-0.547,1.222-1.221,1.222s-1.221-0.547-1.221-1.222
		c0-0.675,0.547-1.221,1.221-1.221S428.11,117.659,428.11,118.333z"/>
	<path style="fill:#B9D0F9;" d="M89.555,69.779c0,0.675-0.547,1.221-1.221,1.221s-1.222-0.547-1.222-1.221
		c0-0.675,0.547-1.222,1.222-1.222S89.555,69.104,89.555,69.779z"/>
	<path style="fill:#B9D0F9;" d="M468.51,214.821c0,1.687-1.367,3.054-3.054,3.054c-1.687,0-3.054-1.367-3.054-3.054
		s1.367-3.054,3.054-3.054C467.142,211.767,468.51,213.134,468.51,214.821z"/>
	<circle style="fill:#B9D0F9;" cx="449.705" cy="200.951" r="2.443"/>
	<path style="fill:#B9D0F9;" d="M397.179,213.777c0,1.687-1.367,3.054-3.054,3.054c-1.687,0-3.054-1.367-3.054-3.054
		s1.367-3.054,3.054-3.054C395.811,210.723,397.179,212.09,397.179,213.777z"/>
	<path style="fill:#B9D0F9;" d="M226.162,420.218c0,1.687-1.367,3.054-3.054,3.054s-3.054-1.367-3.054-3.054
		c0-1.687,1.367-3.054,3.054-3.054S226.162,418.532,226.162,420.218z"/>
	<circle style="fill:#B9D0F9;" cx="437.49" cy="447.703" r="4.886"/>
	<path style="fill:#B9D0F9;" d="M404.508,407.392c0,1.349-1.094,2.443-2.443,2.443c-1.349,0-2.443-1.094-2.443-2.443
		s1.094-2.443,2.443-2.443C403.414,404.949,404.508,406.043,404.508,407.392z"/>
	<path style="fill:#B9D0F9;" d="M463.142,351.812c0,1.687-1.367,3.054-3.054,3.054c-1.687,0-3.054-1.367-3.054-3.054
		c0-1.687,1.367-3.054,3.054-3.054C461.775,348.758,463.142,350.125,463.142,351.812z"/>
	<path style="fill:#B9D0F9;" d="M205.396,470.302c0,1.687-1.367,3.054-3.054,3.054s-3.054-1.367-3.054-3.054
		c0-1.687,1.367-3.054,3.054-3.054S205.396,468.615,205.396,470.302z"/>
	<circle style="fill:#B9D0F9;" cx="80.798" cy="447.703" r="2.443"/>
	<g>
		<g>
			<path style="fill:#7973EF;" d="M158.629,305.711c-1.803-2.433-4.497-4.19-7.45-4.86c-2.953-0.671-6.141-0.248-8.818,1.167
				c1.517,2.601,4.55,4.714,7.484,5.392C152.779,308.086,156.126,307.383,158.629,305.711z"/>
			<g>
				
					<path style="fill:none;stroke:#7973EF;stroke-width:0.9439;stroke-linecap:round;stroke-linejoin:round;stroke-miterlimit:10;" d="
					M171.467,338.959c-3.123-17.358-11.055-33.825-22.68-47.088"/>
				<path style="fill:#7973EF;" d="M153.24,297.635c-0.092-4.214-1.738-8.377-4.554-11.514s-6.777-5.222-10.957-5.767
					c-0.369,4.175,1.378,9.016,4.166,12.145C144.683,295.628,149.05,297.522,153.24,297.635z"/>
				<path style="fill:#7973EF;" d="M162.583,313.783c-1.244-1.679-3.103-2.892-5.141-3.354c-2.038-0.463-4.238-0.172-6.086,0.805
					c1.047,1.795,3.14,3.253,5.165,3.721C158.545,315.423,160.855,314.938,162.583,313.783z"/>
				<path style="fill:#7973EF;" d="M166.987,323.955c-0.799-1.078-1.993-1.857-3.302-2.154c-1.309-0.297-2.722-0.11-3.908,0.517
					c0.672,1.153,2.017,2.089,3.317,2.39C164.394,325.008,165.878,324.696,166.987,323.955z"/>
				<path style="fill:#7973EF;" d="M158.254,304.985c-1.614-2.541-2.283-5.666-1.852-8.645c0.431-2.979,1.96-5.786,4.228-7.764
					c1.872,2.335,2.75,5.903,2.332,8.866C162.545,300.405,160.699,303.259,158.254,304.985z"/>
				<path style="fill:#7973EF;" d="M163.344,313.819c-0.857-1.92-1.002-4.148-0.401-6.163c0.601-2.015,1.943-3.8,3.712-4.936
					c1.056,1.804,1.301,4.359,0.711,6.365C166.775,311.089,165.209,312.874,163.344,313.819z"/>
				<path style="fill:#7973EF;" d="M167.672,323.782c-0.72-1.133-1.018-2.527-0.826-3.855c0.192-1.328,0.874-2.58,1.886-3.462
					c0.835,1.041,1.226,2.632,1.04,3.954C169.585,321.74,168.762,323.013,167.672,323.782z"/>
			</g>
		</g>
		<g>
			<rect x="214.896" y="150.375" style="fill:#F9A41C;" width="124.826" height="207.684"/>
			<rect x="214.896" y="150.375" style="fill:#F9A41C;" width="124.826" height="207.684"/>
			<rect x="266.754" y="150.375" style="opacity:0.6;fill:#E56700;" width="72.968" height="207.684"/>
			<rect x="169.585" y="254.217" style="fill:#F9A41C;" width="97.169" height="103.842"/>
			<g>
				<polygon style="fill:#9FBDFF;" points="156.492,266.051 140.904,265.965 214.896,149.789 230.483,149.875 				"/>
				<polygon style="fill:#9FBDFF;" points="187.793,266.226 172.206,266.139 246.197,149.963 261.785,150.05 				"/>
				<polygon style="fill:#34304F;" points="172.079,266.138 156.492,266.051 230.483,149.875 246.071,149.962 				"/>
				<polygon style="fill:#34304F;" points="203.381,266.312 187.793,266.226 261.785,150.05 277.372,150.136 				"/>
				<polygon style="fill:#9FBDFF;" points="218.841,266.398 203.254,266.312 277.245,150.136 292.833,150.222 				"/>
				<polygon style="fill:#9FBDFF;" points="250.143,266.573 234.555,266.486 308.547,150.31 324.135,150.397 				"/>
				<polygon style="fill:#34304F;" points="234.429,266.485 218.841,266.398 292.833,150.222 308.42,150.309 				"/>
				<polygon style="fill:#34304F;" points="265.73,266.659 250.143,266.573 324.135,150.397 339.722,150.483 				"/>
			</g>
			<path style="fill:#FAC119;" d="M248.265,201.451H139.31c-2.415,0-4.391-1.976-4.391-4.391v-34.595
				c0-2.415,1.976-4.391,4.391-4.391h108.955c2.415,0,4.391,1.976,4.391,4.391v34.595
				C252.656,199.475,250.68,201.451,248.265,201.451z"/>
			<path style="fill:#F9A41C;" d="M248.265,158.075h-23.144c-3.442,5.636-7.512,10.908-11.923,15.848
				c-9.087,10.175-19.569,19.203-30.57,27.529h65.638c2.415,0,4.391-1.976,4.391-4.391v-34.595
				C252.656,160.05,250.68,158.075,248.265,158.075z"/>
			<g>
				
					<text transform="matrix(1 0 0 1 150.1055 188.3022)" style="fill:#FFFFFF; font-family:'Montserrat-Black'; font-size:24.1936px; letter-spacing:4;">SHOP</text>
			</g>
			<rect x="166.065" y="327.552" style="fill:#9FBDFF;" width="178.797" height="30.507"/>
			<rect x="166.065" y="327.552" style="fill:#D4E2FC;" width="100.689" height="30.507"/>
			<rect x="220.04" y="275.338" style="fill:#9FBDFF;" width="29.334" height="80.375"/>
			<rect x="225.462" y="283.401" style="fill:#D4E2FC;" width="18.253" height="30.565"/>
			<rect x="225.462" y="317.453" style="fill:#D4E2FC;" width="18.253" height="30.564"/>
			<rect x="179.047" y="277.143" style="fill:#9FBDFF;" width="25.294" height="37.81"/>
			<rect x="181.852" y="281.336" style="fill:#D4E2FC;" width="19.683" height="29.423"/>
			<rect x="180.351" y="301.132" style="fill:#9FBDFF;" width="23.207" height="2.868"/>
			<rect x="316.842" y="210.217" style="opacity:0.6;fill:#BC5202;" width="17.014" height="8.214"/>
			<rect x="293.668" y="232.51" style="opacity:0.6;fill:#BC5202;" width="17.014" height="8.214"/>
			<rect x="317.174" y="251.937" style="opacity:0.6;fill:#BC5202;" width="17.014" height="8.214"/>
			<rect x="296.626" y="261.441" style="opacity:0.6;fill:#BC5202;" width="17.014" height="8.214"/>
			<rect x="277.156" y="294.222" style="opacity:0.6;fill:#BC5202;" width="17.014" height="8.214"/>
			<rect x="295.272" y="302.873" style="opacity:0.6;fill:#BC5202;" width="17.014" height="8.214"/>
		</g>
		<g>
			<path style="fill:#7973EF;" d="M335.595,303.201c3.407-4.103,8.313-6.932,13.571-7.825c5.258-0.893,10.823,0.158,15.393,2.907
				c-2.919,4.426-8.458,7.849-13.683,8.755C345.652,307.945,339.835,306.385,335.595,303.201z"/>
			<g>
				
					<path style="fill:none;stroke:#7973EF;stroke-width:1.6623;stroke-linecap:round;stroke-linejoin:round;stroke-miterlimit:10;" d="
					M309.798,360.422c7.174-30.22,22.718-58.408,44.446-80.603"/>
				<path style="fill:#7973EF;" d="M345.855,289.522c0.57-7.401,3.869-14.562,9.124-19.805c5.255-5.243,12.423-8.526,19.826-9.079
					c0.244,7.377-3.297,15.72-8.503,20.952C361.097,286.823,353.233,289.729,345.855,289.522z"/>
				<path style="fill:#7973EF;" d="M327.861,317.013c2.351-2.832,5.737-4.784,9.366-5.4c3.628-0.616,7.469,0.109,10.623,2.006
					c-2.015,3.055-5.837,5.417-9.443,6.042C334.801,320.287,330.787,319.211,327.861,317.013z"/>
				<path style="fill:#7973EF;" d="M319.13,334.472c1.51-1.819,3.685-3.073,6.015-3.468c2.33-0.396,4.797,0.07,6.823,1.289
					c-1.294,1.962-3.749,3.479-6.065,3.88C323.588,336.575,321.009,335.884,319.13,334.472z"/>
				<path style="fill:#7973EF;" d="M336.325,301.961c3.084-4.311,4.564-9.742,4.094-15.022c-0.47-5.28-2.886-10.364-6.683-14.063
					c-3.518,3.924-5.408,10.113-4.96,15.364C329.225,293.492,332.194,298.69,336.325,301.961z"/>
				<path style="fill:#7973EF;" d="M326.519,317.001c1.693-3.293,2.164-7.198,1.303-10.799c-0.861-3.601-3.048-6.87-6.048-9.04
					c-2.032,3.07-2.71,7.54-1.867,11.124C320.75,311.869,323.331,315.16,326.519,317.001z"/>
				<path style="fill:#7973EF;" d="M317.943,334.102c1.375-1.923,2.035-4.345,1.826-6.699c-0.21-2.354-1.287-4.622-2.98-6.271
					c-1.569,1.75-2.412,4.51-2.212,6.852C314.776,330.325,316.1,332.643,317.943,334.102z"/>
			</g>
		</g>
		<g>
			<path style="fill:#7973EF;" d="M354.253,330.911c2.544-1.642,5.684-2.339,8.684-1.927c3,0.412,5.836,1.93,7.843,4.197
				c-2.335,1.9-5.919,2.81-8.903,2.412S356.007,333.358,354.253,330.911z"/>
			<g>
				
					<path style="fill:none;stroke:#7973EF;stroke-width:0.9439;stroke-linecap:round;stroke-linejoin:round;stroke-miterlimit:10;" d="
					M330.531,357.511c9.034-15.147,22.255-27.768,37.806-36.089"/>
				<path style="fill:#7973EF;" d="M362.14,325.25c1.57-3.912,4.576-7.229,8.316-9.174c3.74-1.945,8.182-2.502,12.286-1.54
					c-1.125,4.037-4.464,7.954-8.175,9.901C370.856,326.384,366.101,326.619,362.14,325.25z"/>
				<path style="fill:#7973EF;" d="M347.71,337.075c1.756-1.133,3.923-1.614,5.993-1.33c2.07,0.284,4.027,1.332,5.412,2.896
					c-1.611,1.311-4.085,1.939-6.144,1.664C350.912,340.031,348.921,338.764,347.71,337.075z"/>
				<path style="fill:#7973EF;" d="M340.007,345.045c1.128-0.728,2.519-1.037,3.849-0.854c1.33,0.183,2.586,0.855,3.476,1.86
					c-1.035,0.842-2.623,1.246-3.946,1.069C342.063,346.943,340.784,346.129,340.007,345.045z"/>
				<path style="fill:#7973EF;" d="M354.859,330.364c2.405-1.81,4.132-4.5,4.777-7.439c0.645-2.94,0.202-6.105-1.224-8.756
					c-2.574,1.526-4.652,4.557-5.304,7.477C352.456,324.567,353.179,327.888,354.859,330.364z"/>
				<path style="fill:#7973EF;" d="M346.985,336.84c1.478-1.495,2.398-3.53,2.545-5.627c0.147-2.098-0.481-4.241-1.736-5.927
					c-1.624,1.317-2.752,3.622-2.906,5.707C344.735,333.078,345.572,335.3,346.985,336.84z"/>
				<path style="fill:#7973EF;" d="M339.427,344.642c1.072-0.807,1.842-2.007,2.13-3.318c0.288-1.311,0.09-2.723-0.546-3.904
					c-1.148,0.681-2.075,2.032-2.365,3.334C338.355,342.057,338.677,343.538,339.427,344.642z"/>
			</g>
		</g>
		<g>
			<path style="fill:#7973EF;" d="M295.425,329.553c1.56-2.595,4.072-4.604,6.946-5.556c2.875-0.952,6.089-0.839,8.889,0.312
				c-1.259,2.735-4.075,5.131-6.929,6.088C301.477,331.353,298.078,330.977,295.425,329.553z"/>
			<g>
				
					<path style="fill:none;stroke:#7973EF;stroke-width:0.9439;stroke-linecap:round;stroke-linejoin:round;stroke-miterlimit:10;" d="
					M285.852,363.884c1.435-17.578,7.743-34.733,18.035-49.055"/>
				<path style="fill:#7973EF;" d="M300.011,320.995c-0.315-4.203,0.923-8.506,3.423-11.899c2.5-3.394,6.242-5.851,10.35-6.796
					c0.77,4.12-0.502,9.107-2.976,12.49C308.334,318.173,304.17,320.479,300.011,320.995z"/>
				<path style="fill:#7973EF;" d="M292.268,337.969c1.077-1.791,2.81-3.177,4.794-3.834c1.984-0.657,4.202-0.579,6.135,0.215
					c-0.869,1.887-2.812,3.541-4.782,4.201C296.444,339.212,294.099,338.952,292.268,337.969z"/>
				<path style="fill:#7973EF;" d="M288.864,348.518c0.692-1.15,1.805-2.041,3.079-2.463c1.274-0.422,2.699-0.372,3.94,0.138
					c-0.558,1.212-1.806,2.274-3.071,2.698C291.547,349.316,290.04,349.149,288.864,348.518z"/>
				<path style="fill:#7973EF;" d="M295.728,328.794c1.361-2.684,1.726-5.86,1.01-8.783c-0.717-2.923-2.509-5.57-4.957-7.32
					c-1.638,2.504-2.168,6.141-1.467,9.049C291.016,324.65,293.128,327.313,295.728,328.794z"/>
				<path style="fill:#7973EF;" d="M291.514,338.078c0.668-1.994,0.598-4.226-0.195-6.173c-0.792-1.948-2.3-3.595-4.17-4.556
					c-0.877,1.897-0.874,4.465-0.094,6.404C287.835,335.692,289.566,337.318,291.514,338.078z"/>
				<path style="fill:#7973EF;" d="M288.166,348.412c0.607-1.197,0.77-2.613,0.45-3.917c-0.319-1.304-1.119-2.484-2.211-3.264
					c-0.73,1.117-0.967,2.738-0.654,4.036C286.065,346.564,287.007,347.751,288.166,348.412z"/>
			</g>
		</g>
		<g>
			<path style="fill:#7973EF;" d="M139.427,323.566c-2.975-2.086-6.708-3.065-10.323-2.709c-3.616,0.356-7.085,2.046-9.596,4.672
				c2.713,2.386,6.967,3.641,10.564,3.3C133.668,328.488,137.212,326.419,139.427,323.566z"/>
			<g>
				
					<path style="fill:none;stroke:#7973EF;stroke-width:1.1325;stroke-linecap:round;stroke-linejoin:round;stroke-miterlimit:10;" d="
					M166.648,356.549c-10.136-18.576-25.409-34.315-43.672-45.006"/>
				<path style="fill:#7973EF;" d="M130.23,316.416c-1.702-4.763-5.155-8.878-9.55-11.381c-4.395-2.504-9.695-3.375-14.66-2.411
					c1.163,4.892,4.987,9.741,9.347,12.246C119.728,317.375,125.418,317.875,130.23,316.416z"/>
				<path style="fill:#7973EF;" d="M146.989,331.257c-2.053-1.439-4.629-2.115-7.124-1.869c-2.495,0.246-4.89,1.412-6.622,3.224
					c1.872,1.646,4.808,2.513,7.29,2.278C143.014,334.654,145.46,333.226,146.989,331.257z"/>
				<path style="fill:#7973EF;" d="M155.859,341.166c-1.319-0.924-2.973-1.359-4.576-1.201c-1.603,0.158-3.14,0.907-4.253,2.071
					c1.202,1.057,3.088,1.614,4.682,1.463C153.306,343.348,154.877,342.431,155.859,341.166z"/>
				<path style="fill:#7973EF;" d="M138.725,322.882c-2.8-2.28-4.747-5.585-5.385-9.139c-0.638-3.554,0.038-7.33,1.87-10.442
					c3.016,1.948,5.369,5.677,6.016,9.209C141.873,316.042,140.854,319.991,138.725,322.882z"/>
				<path style="fill:#7973EF;" d="M147.868,331.009c-1.704-1.861-2.713-4.343-2.793-6.864c-0.08-2.522,0.771-5.062,2.354-7.027
					c1.886,1.653,3.134,4.47,3.222,6.976C150.739,326.601,149.634,329.227,147.868,331.009z"/>
				<path style="fill:#7973EF;" d="M156.573,340.71c-1.249-1.017-2.117-2.491-2.402-4.076c-0.285-1.585,0.017-3.269,0.834-4.656
					c1.345,0.869,2.394,2.532,2.683,4.107C157.977,337.66,157.522,339.421,156.573,340.71z"/>
			</g>
		</g>
		<rect x="140.838" y="355.713" style="fill:#34304F;" width="222.351" height="9.387"/>
		<g>
			<path style="fill:#83A8EA;" d="M141.116,265.489v4.524c0,4.678,3.53,8.506,7.844,8.506c4.314,0,7.844-3.828,7.844-8.506v-4.524
				H141.116z"/>
			<path style="fill:#1E1C33;" d="M156.892,265.285v4.524c0,4.678,3.393,8.506,7.54,8.506c4.147,0,7.54-3.828,7.54-8.506v-4.524
				H156.892z"/>
		</g>
		<g>
			<path style="fill:#83A8EA;" d="M172.062,266.1v4.524c0,4.678,3.53,8.506,7.844,8.506c4.314,0,7.844-3.828,7.844-8.506V266.1
				H172.062z"/>
			<path style="fill:#1E1C33;" d="M187.838,265.896v4.524c0,4.678,3.393,8.506,7.54,8.506c4.147,0,7.54-3.828,7.54-8.506v-4.524
				H187.838z"/>
		</g>
		<g>
			<path style="fill:#83A8EA;" d="M203.007,266.076v4.461c0,4.614,3.576,8.389,7.947,8.389c4.371,0,7.947-3.775,7.947-8.389v-4.461
				H203.007z"/>
			<path style="fill:#1E1C33;" d="M218.992,265.875v4.461c0,4.614,3.438,8.389,7.64,8.389c4.202,0,7.64-3.775,7.64-8.389v-4.461
				H218.992z"/>
		</g>
		<g>
			<path style="fill:#83A8EA;" d="M234.271,266.088v4.74c0,4.902,3.61,8.912,8.022,8.912c4.412,0,8.021-4.01,8.021-8.912v-4.74
				H234.271z"/>
			<path style="fill:#1E1C33;" d="M250.405,265.875v4.74c0,4.902,3.47,8.912,7.711,8.912c4.241,0,7.711-4.01,7.711-8.912v-4.74
				H250.405z"/>
		</g>
		<g>
			<path style="fill:#34304F;" d="M219.409,320.255L219.409,320.255c-2.016,0-3.665-1.649-3.665-3.665v-2.036
				c0-2.016,1.649-3.665,3.665-3.665l0,0c2.016,0,3.665,1.649,3.665,3.665v2.036C223.074,318.606,221.425,320.255,219.409,320.255z"
				/>
			<rect x="220.58" y="314.402" style="fill:#34304F;" width="3.817" height="1.985"/>
		</g>
	</g>
	<g>
		<g>
			<path style="fill:#FFFFFF;" d="M91.422,330.547c-13.205,0-23.899,10.703-23.899,23.908c0,13.196,10.695,23.899,23.899,23.899
				c13.204,0,23.899-10.704,23.899-23.899C115.321,341.25,104.626,330.547,91.422,330.547z"/>
		</g>
		<g>
			<path style="fill:#7973EF;" d="M91.422,330.547c-13.205,0-23.899,10.703-23.899,23.908c0,13.196,10.695,23.899,23.899,23.899
				c13.204,0,23.899-10.704,23.899-23.899C115.321,341.25,104.626,330.547,91.422,330.547z M91.421,365.484
				c-6.096,0-11.037-4.935-11.037-11.03s4.941-11.037,11.037-11.037c6.096,0,11.037,4.941,11.037,11.037
				S97.517,365.484,91.421,365.484z"/>
		</g>
		<g>
			<g>
				<polygon style="fill:#7973EF;" points="94.919,332.881 87.705,332.881 89.454,320.639 94.045,320.639 				"/>
			</g>
			<g>
				<polygon style="fill:#7973EF;" points="87.596,374.419 94.81,374.419 93.061,386.661 88.47,386.661 				"/>
			</g>
			<g>
				<polygon style="fill:#7973EF;" points="112.026,357.312 112.026,350.098 124.269,351.846 124.269,356.437 				"/>
			</g>
			<g>
				<polygon style="fill:#7973EF;" points="70.489,349.988 70.489,357.203 58.246,355.454 58.246,350.863 				"/>
			</g>
			<g>
				<polygon style="fill:#7973EF;" points="103.354,370.925 108.455,365.824 115.875,375.717 112.629,378.964 				"/>
			</g>
			<g>
				<polygon style="fill:#7973EF;" points="79.161,336.375 74.06,341.476 66.64,331.583 69.886,328.337 				"/>
			</g>
			<g>
				<polygon style="fill:#7973EF;" points="73.982,365.746 79.084,370.848 69.19,378.268 65.944,375.022 				"/>
			</g>
			<g>
				<polygon style="fill:#7973EF;" points="108.533,341.554 103.431,336.452 113.325,329.032 116.571,332.279 				"/>
			</g>
		</g>
		<g>
			
				<path style="fill:none;stroke:#3F389B;stroke-width:1.6652;stroke-linecap:round;stroke-linejoin:round;stroke-miterlimit:10;" d="
				M91.422,374.441c-11.023,0-19.991-8.968-19.991-19.991c0-11.023,8.968-19.991,19.991-19.991c11.023,0,19.991,8.968,19.991,19.991
				C111.412,365.473,102.445,374.441,91.422,374.441z M91.422,335.334c-10.541,0-19.116,8.576-19.116,19.116
				c0,10.541,8.576,19.116,19.116,19.116c10.541,0,19.116-8.576,19.116-19.116C110.538,343.91,101.962,335.334,91.422,335.334z"/>
		</g>
		<g>
			<path style="fill:#7973EF;" d="M46.664,315.305c-6.523,0-11.806,5.288-11.806,11.811c0,6.519,5.283,11.806,11.806,11.806
				c6.523,0,11.806-5.288,11.806-11.806C58.47,320.593,53.187,315.305,46.664,315.305z M46.664,333.977
				c-3.792,0-6.866-3.07-6.866-6.862c0-3.792,3.074-6.866,6.866-6.866c3.792,0,6.866,3.074,6.866,6.866
				C53.529,330.908,50.456,333.977,46.664,333.977z"/>
		</g>
		<g>
			<g>
				<polygon style="fill:#7973EF;" points="48.392,316.459 44.828,316.459 45.692,310.411 47.96,310.411 				"/>
			</g>
			<g>
				<polygon style="fill:#7973EF;" points="44.774,336.978 48.338,336.978 47.474,343.026 45.206,343.026 				"/>
			</g>
			<g>
				<polygon style="fill:#7973EF;" points="56.842,328.527 56.842,324.963 62.89,325.827 62.89,328.095 				"/>
			</g>
			<g>
				<polygon style="fill:#7973EF;" points="36.323,324.909 36.323,328.473 30.275,327.609 30.275,325.341 				"/>
			</g>
			<g>
				<polygon style="fill:#7973EF;" points="52.558,335.252 55.078,332.732 58.744,337.62 57.14,339.223 				"/>
			</g>
			<g>
				<polygon style="fill:#7973EF;" points="40.607,318.185 38.087,320.705 34.421,315.817 36.025,314.214 				"/>
			</g>
			<g>
				<polygon style="fill:#7973EF;" points="38.049,332.694 40.569,335.214 35.681,338.88 34.078,337.276 				"/>
			</g>
			<g>
				<polygon style="fill:#7973EF;" points="55.117,320.743 52.596,318.223 57.484,314.557 59.088,316.161 				"/>
			</g>
		</g>
		<g>
			<g>
				<polygon style="fill:#7973EF;" points="52.021,317.833 48.705,316.528 51.722,311.216 53.833,312.046 				"/>
			</g>
			<g>
				<polygon style="fill:#7973EF;" points="41.144,335.604 44.461,336.909 41.443,342.221 39.332,341.391 				"/>
			</g>
			<g>
				<polygon style="fill:#7973EF;" points="55.468,332.157 56.773,328.841 62.085,331.858 61.255,333.969 				"/>
			</g>
			<g>
				<polygon style="fill:#7973EF;" points="37.697,321.28 36.392,324.596 31.08,321.579 31.911,319.468 				"/>
			</g>
			<g>
				<polygon style="fill:#7973EF;" points="49.02,336.847 52.288,335.424 53.91,341.314 51.831,342.22 				"/>
			</g>
			<g>
				<polygon style="fill:#7973EF;" points="44.145,316.59 40.878,318.012 39.255,312.122 41.335,311.217 				"/>
			</g>
			<g>
				<polygon style="fill:#7973EF;" points="36.454,329.156 37.877,332.423 31.987,334.046 31.081,331.966 				"/>
			</g>
			<g>
				<polygon style="fill:#7973EF;" points="56.712,324.281 55.289,321.013 61.179,319.391 62.084,321.47 				"/>
			</g>
		</g>
	</g>
	<g>
		<g>
			<path style="fill:#FFFFFF;" d="M399.09,329.198c-12.399,4.541-18.76,18.27-14.219,30.669
				c4.538,12.391,18.262,18.763,30.661,14.222c12.399-4.541,18.76-18.27,14.222-30.661
				C425.212,331.029,411.489,324.656,399.09,329.198z"/>
		</g>
		<g>
			<path style="fill:#7973EF;" d="M399.09,329.198c-12.399,4.541-18.76,18.27-14.219,30.669
				c4.538,12.391,18.262,18.763,30.661,14.222c12.399-4.541,18.76-18.27,14.222-30.661
				C425.212,331.029,411.489,324.656,399.09,329.198z M411.105,362.004c-5.724,2.096-12.061-0.838-14.157-6.562
				c-2.096-5.724,0.844-12.063,6.568-14.159c5.724-2.096,12.063,0.844,14.159,6.568
				C419.771,353.574,416.829,359.907,411.105,362.004z"/>
		</g>
		<g>
			<g>
				<polygon style="fill:#7973EF;" points="403.177,330.187 396.403,332.668 393.835,320.571 398.145,318.992 				"/>
			</g>
			<g>
				<polygon style="fill:#7973EF;" points="410.585,371.709 417.36,369.228 419.928,381.326 415.617,382.904 				"/>
			</g>
			<g>
				<polygon style="fill:#7973EF;" points="427.642,347.244 425.161,340.47 437.259,337.901 438.837,342.212 				"/>
			</g>
			<g>
				<polygon style="fill:#7973EF;" points="386.12,354.652 388.601,361.427 376.504,363.995 374.925,359.684 				"/>
			</g>
			<g>
				<polygon style="fill:#7973EF;" points="424.181,363.009 427.217,356.465 437.587,363.203 435.655,367.368 				"/>
			</g>
			<g>
				<polygon style="fill:#7973EF;" points="389.582,338.887 386.546,345.432 376.176,338.694 378.108,334.529 				"/>
			</g>
			<g>
				<polygon style="fill:#7973EF;" points="394.82,368.248 401.365,371.284 394.627,381.654 390.462,379.722 				"/>
			</g>
			<g>
				<polygon style="fill:#7973EF;" points="418.942,333.648 412.398,330.613 419.136,320.243 423.301,322.175 				"/>
			</g>
		</g>
		<g>
			
				<path style="fill:none;stroke:#3F389B;stroke-width:1.6652;stroke-linecap:round;stroke-linejoin:round;stroke-miterlimit:10;" d="
				M414.186,370.414c-10.351,3.791-21.855-1.545-25.646-11.896c-3.791-10.351,1.546-21.855,11.896-25.647
				c10.351-3.791,21.855,1.546,25.646,11.896C429.873,355.119,424.536,366.623,414.186,370.414z M400.736,333.693
				c-9.898,3.625-15.001,14.627-11.376,24.525c3.625,9.898,14.627,15.001,24.524,11.376c9.898-3.625,15.001-14.627,11.376-24.525
				C421.635,335.171,410.634,330.068,400.736,333.693z"/>
		</g>
		<g>
			<path style="fill:#7973EF;" d="M454.642,316.305c-6.523,0-11.806,5.288-11.806,11.811c0,6.519,5.283,11.806,11.806,11.806
				c6.523,0,11.806-5.288,11.806-11.806C466.449,321.593,461.165,316.305,454.642,316.305z M454.642,334.977
				c-3.792,0-6.866-3.07-6.866-6.862c0-3.792,3.074-6.866,6.866-6.866c3.792,0,6.866,3.074,6.866,6.866
				C461.508,331.908,458.434,334.977,454.642,334.977z"/>
		</g>
		<g>
			<g>
				<polygon style="fill:#7973EF;" points="456.37,317.459 452.806,317.459 453.67,311.411 455.938,311.411 				"/>
			</g>
			<g>
				<polygon style="fill:#7973EF;" points="452.752,337.978 456.316,337.978 455.452,344.026 453.184,344.026 				"/>
			</g>
			<g>
				<polygon style="fill:#7973EF;" points="464.821,329.527 464.821,325.963 470.869,326.827 470.869,329.095 				"/>
			</g>
			<g>
				<polygon style="fill:#7973EF;" points="444.301,325.909 444.301,329.473 438.254,328.609 438.254,326.341 				"/>
			</g>
			<g>
				<polygon style="fill:#7973EF;" points="460.537,336.252 463.057,333.732 466.722,338.62 465.119,340.223 				"/>
			</g>
			<g>
				<polygon style="fill:#7973EF;" points="448.586,319.185 446.066,321.705 442.4,316.817 444.004,315.214 				"/>
			</g>
			<g>
				<polygon style="fill:#7973EF;" points="446.027,333.694 448.547,336.214 443.66,339.88 442.056,338.276 				"/>
			</g>
			<g>
				<polygon style="fill:#7973EF;" points="463.095,321.743 460.575,319.223 465.462,315.557 467.066,317.161 				"/>
			</g>
		</g>
		<g>
			<g>
				<polygon style="fill:#7973EF;" points="460,318.833 456.683,317.528 459.701,312.216 461.812,313.046 				"/>
			</g>
			<g>
				<polygon style="fill:#7973EF;" points="449.123,336.604 452.439,337.909 449.421,343.221 447.311,342.391 				"/>
			</g>
			<g>
				<polygon style="fill:#7973EF;" points="463.447,333.157 464.751,329.841 470.063,332.858 469.233,334.969 				"/>
			</g>
			<g>
				<polygon style="fill:#7973EF;" points="445.676,322.28 444.371,325.596 439.059,322.579 439.889,320.468 				"/>
			</g>
			<g>
				<polygon style="fill:#7973EF;" points="456.999,337.847 460.266,336.424 461.889,342.314 459.809,343.22 				"/>
			</g>
			<g>
				<polygon style="fill:#7973EF;" points="452.124,317.59 448.856,319.012 447.234,313.122 449.313,312.217 				"/>
			</g>
			<g>
				<polygon style="fill:#7973EF;" points="444.432,330.156 445.855,333.423 439.965,335.046 439.06,332.966 				"/>
			</g>
			<g>
				<polygon style="fill:#7973EF;" points="464.69,325.281 463.267,322.013 469.157,320.391 470.063,322.47 				"/>
			</g>
		</g>
	</g>
	<g>
		<circle style="fill:#FFFFFF;" cx="254.278" cy="78.524" r="16.518"/>
		<g>
			<path style="fill:#34304F;" d="M254.039,58.666c-10.841,0-19.621,8.787-19.621,19.628c0,10.834,8.78,19.621,19.621,19.621
				c10.841,0,19.621-8.787,19.621-19.621C273.66,67.453,264.88,58.666,254.039,58.666z M254.039,87.372
				c-5.018,0-9.084-4.062-9.084-9.079c0-5.017,4.067-9.084,9.084-9.084c5.018,0,9.085,4.067,9.085,9.084
				C263.123,83.311,259.056,87.372,254.039,87.372z"/>
		</g>
		<g>
			<g>
				<g>
					<polygon style="fill:#34304F;" points="256.911,60.583 250.988,60.583 252.424,50.532 256.193,50.532 					"/>
				</g>
				<g>
					<polygon style="fill:#34304F;" points="250.898,94.685 256.821,94.685 255.385,104.736 251.616,104.736 					"/>
				</g>
				<g>
					<polygon style="fill:#34304F;" points="270.955,80.64 270.955,74.717 281.006,76.153 281.006,79.922 					"/>
				</g>
				<g>
					<polygon style="fill:#34304F;" points="236.853,74.627 236.853,80.55 226.802,79.114 226.802,75.345 					"/>
				</g>
				<g>
					<polygon style="fill:#34304F;" points="263.835,91.816 268.023,87.628 274.115,95.751 271.45,98.416 					"/>
				</g>
				<g>
					<polygon style="fill:#34304F;" points="243.973,63.451 239.785,67.639 233.693,59.517 236.358,56.852 					"/>
				</g>
				<g>
					<polygon style="fill:#34304F;" points="239.722,87.565 243.91,91.753 235.787,97.845 233.122,95.18 					"/>
				</g>
				<g>
					<polygon style="fill:#34304F;" points="268.087,67.703 263.899,63.515 272.021,57.423 274.686,60.088 					"/>
				</g>
			</g>
			<g>
				<g>
					<polygon style="fill:#34304F;" points="264.035,61.965 257.857,59.535 263.478,49.64 267.41,51.186 					"/>
				</g>
				<g>
					<polygon style="fill:#34304F;" points="243.773,95.068 249.951,97.498 244.33,107.393 240.399,105.846 					"/>
				</g>
				<g>
					<polygon style="fill:#34304F;" points="270.456,88.647 272.886,82.469 282.781,88.09 281.234,92.022 					"/>
				</g>
				<g>
					<polygon style="fill:#34304F;" points="237.353,68.385 234.923,74.563 225.028,68.942 226.574,65.011 					"/>
				</g>
				<g>
					<polygon style="fill:#34304F;" points="258.445,97.384 264.531,94.733 267.553,105.705 263.68,107.391 					"/>
				</g>
				<g>
					<polygon style="fill:#34304F;" points="249.364,59.649 243.277,62.299 240.255,51.328 244.129,49.641 					"/>
				</g>
				<g>
					<polygon style="fill:#34304F;" points="235.037,83.057 237.687,89.143 226.716,92.165 225.029,88.292 					"/>
				</g>
				<g>
					<polygon style="fill:#34304F;" points="272.772,73.976 270.121,67.89 281.093,64.868 282.779,68.741 					"/>
				</g>
			</g>
			
				<ellipse transform="matrix(0.2283 -0.9736 0.9736 0.2283 119.9017 307.4746)" style="fill:none;stroke:#7973EF;stroke-width:0.7366;stroke-miterlimit:10;" cx="253.904" cy="78.104" rx="15.071" ry="15.071"/>
		</g>
	</g>
	<g>
		<g>
			<path style="fill:#7973EF;" d="M288.102,44.704c-4.717,0-8.537,3.824-8.537,8.541c0,4.714,3.82,8.537,8.537,8.537
				c4.717,0,8.537-3.824,8.537-8.537C296.639,48.528,292.819,44.704,288.102,44.704z M288.102,58.207
				c-2.742,0-4.965-2.22-4.965-4.962c0-2.742,2.223-4.965,4.965-4.965c2.742,0,4.965,2.223,4.965,4.965
				C293.066,55.987,290.844,58.207,288.102,58.207z"/>
		</g>
		<g>
			<g>
				<polygon style="fill:#7973EF;" points="289.351,45.538 286.774,45.538 287.399,41.165 289.039,41.165 				"/>
			</g>
			<g>
				<polygon style="fill:#7973EF;" points="286.735,60.376 289.312,60.376 288.687,64.75 287.047,64.75 				"/>
			</g>
			<g>
				<polygon style="fill:#7973EF;" points="295.462,54.265 295.462,51.688 299.835,52.313 299.835,53.953 				"/>
			</g>
			<g>
				<polygon style="fill:#7973EF;" points="280.624,51.649 280.624,54.227 276.251,53.602 276.251,51.962 				"/>
			</g>
			<g>
				<polygon style="fill:#7973EF;" points="292.364,59.129 294.186,57.306 296.837,60.84 295.677,62 				"/>
			</g>
			<g>
				<polygon style="fill:#7973EF;" points="283.722,46.786 281.9,48.609 279.249,45.075 280.409,43.915 				"/>
			</g>
			<g>
				<polygon style="fill:#7973EF;" points="281.872,57.278 283.694,59.101 280.16,61.751 279,60.592 				"/>
			</g>
			<g>
				<polygon style="fill:#7973EF;" points="294.214,48.636 292.392,46.814 295.926,44.163 297.086,45.323 				"/>
			</g>
		</g>
		<g>
			<g>
				<polygon style="fill:#7973EF;" points="291.976,46.532 289.578,45.589 291.76,41.748 293.286,42.348 				"/>
			</g>
			<g>
				<polygon style="fill:#7973EF;" points="284.11,59.383 286.509,60.326 284.326,64.167 282.8,63.567 				"/>
			</g>
			<g>
				<polygon style="fill:#7973EF;" points="294.468,56.89 295.412,54.492 299.253,56.674 298.653,58.2 				"/>
			</g>
			<g>
				<polygon style="fill:#7973EF;" points="281.618,49.025 280.674,51.423 276.833,49.241 277.433,47.715 				"/>
			</g>
			<g>
				<polygon style="fill:#7973EF;" points="289.806,60.282 292.168,59.253 293.342,63.512 291.838,64.167 				"/>
			</g>
			<g>
				<polygon style="fill:#7973EF;" points="286.28,45.633 283.918,46.662 282.745,42.403 284.248,41.748 				"/>
			</g>
			<g>
				<polygon style="fill:#7973EF;" points="280.719,54.72 281.747,57.083 277.488,58.256 276.834,56.752 				"/>
			</g>
			<g>
				<polygon style="fill:#7973EF;" points="295.367,51.195 294.339,48.832 298.598,47.659 299.252,49.162 				"/>
			</g>
		</g>
	</g>
	<g>
		<g>
			<path style="fill:#7973EF;" d="M213.988,92.954c-4.717,0-8.537,3.824-8.537,8.541c0,4.714,3.82,8.537,8.537,8.537
				c4.717,0,8.537-3.824,8.537-8.537C222.525,96.778,218.705,92.954,213.988,92.954z M213.988,106.457
				c-2.742,0-4.965-2.22-4.965-4.962c0-2.742,2.223-4.965,4.965-4.965c2.742,0,4.965,2.223,4.965,4.965
				C218.952,104.237,216.73,106.457,213.988,106.457z"/>
		</g>
		<g>
			<g>
				<polygon style="fill:#7973EF;" points="215.237,93.788 212.66,93.788 213.285,89.415 214.925,89.415 				"/>
			</g>
			<g>
				<polygon style="fill:#7973EF;" points="212.621,108.627 215.198,108.627 214.573,113 212.933,113 				"/>
			</g>
			<g>
				<polygon style="fill:#7973EF;" points="221.348,102.516 221.348,99.938 225.721,100.563 225.721,102.203 				"/>
			</g>
			<g>
				<polygon style="fill:#7973EF;" points="206.51,99.899 206.51,102.477 202.137,101.852 202.137,100.212 				"/>
			</g>
			<g>
				<polygon style="fill:#7973EF;" points="218.25,107.379 220.072,105.556 222.723,109.09 221.563,110.25 				"/>
			</g>
			<g>
				<polygon style="fill:#7973EF;" points="209.608,95.036 207.786,96.859 205.135,93.325 206.295,92.165 				"/>
			</g>
			<g>
				<polygon style="fill:#7973EF;" points="207.758,105.529 209.58,107.351 206.046,110.002 204.886,108.842 				"/>
			</g>
			<g>
				<polygon style="fill:#7973EF;" points="220.1,96.886 218.278,95.064 221.812,92.413 222.972,93.573 				"/>
			</g>
		</g>
		<g>
			<g>
				<polygon style="fill:#7973EF;" points="217.862,94.782 215.464,93.839 217.646,89.998 219.172,90.598 				"/>
			</g>
			<g>
				<polygon style="fill:#7973EF;" points="209.996,107.633 212.394,108.576 210.212,112.418 208.686,111.817 				"/>
			</g>
			<g>
				<polygon style="fill:#7973EF;" points="220.354,105.14 221.298,102.742 225.139,104.924 224.539,106.45 				"/>
			</g>
			<g>
				<polygon style="fill:#7973EF;" points="207.504,97.275 206.56,99.673 202.719,97.491 203.319,95.965 				"/>
			</g>
			<g>
				<polygon style="fill:#7973EF;" points="215.692,108.532 218.054,107.503 219.228,111.762 217.724,112.417 				"/>
			</g>
			<g>
				<polygon style="fill:#7973EF;" points="212.166,93.883 209.804,94.912 208.63,90.653 210.134,89.998 				"/>
			</g>
			<g>
				<polygon style="fill:#7973EF;" points="206.605,102.97 207.633,105.333 203.374,106.506 202.72,105.003 				"/>
			</g>
			<g>
				<polygon style="fill:#7973EF;" points="221.253,99.445 220.225,97.082 224.484,95.909 225.138,97.413 				"/>
			</g>
		</g>
	</g>
</g>
<g id="PHOTOS">
</g>
<g id="TEXTS">
</g>
</svg>
